<?xml version="1.0" encoding="UTF-8" standalone="no"?>
<!-- Generated by SVGMaker - https://svgmaker.io -->

<!-- Quality: medium -->

<!-- Type: convert -->

<!-- Created: 2026-07-18T10:02:08.561Z -->

<svg
   version="1.1"
   style="display:block"
   viewBox="0 0 731.36501 731.52631"
   width="502.81345"
   height="502.96527"
   preserveAspectRatio="none"
   id="svg17"
   sodipodi:docname="daisy.svg"
   inkscape:version="1.4.2 (f4327f4, 2025-05-13)"
   xmlns:inkscape="http://www.inkscape.org/namespaces/inkscape"
   xmlns:sodipodi="http://sodipodi.sourceforge.net/DTD/sodipodi-0.dtd"
   xmlns="http://www.w3.org/2000/svg"
   xmlns:svg="http://www.w3.org/2000/svg">
  <sodipodi:namedview
     id="namedview17"
     pagecolor="#ffffff"
     bordercolor="#666666"
     borderopacity="1.0"
     inkscape:showpageshadow="2"
     inkscape:pageopacity="0.0"
     inkscape:pagecheckerboard="true"
     inkscape:deskcolor="#d1d1d1"
     showborder="false"
     inkscape:zoom="1.5585938"
     inkscape:cx="251.82957"
     inkscape:cy="302.83709"
     inkscape:window-width="1678"
     inkscape:window-height="1070"
     inkscape:window-x="408"
     inkscape:window-y="300"
     inkscape:window-maximized="0"
     inkscape:current-layer="svg17" />
  <defs
     id="defs2">
    <linearGradient
       id="Gradient1"
       gradientUnits="userSpaceOnUse"
       x1="1342.95"
       y1="242.86099"
       x2="781.29901"
       y2="797.77197"
       gradientTransform="translate(-658.365,-192.93287)">
      <stop
         class="stop0"
         offset="0"
         stop-opacity="1"
         stop-color="rgb(77,209,158)"
         id="stop1" />
      <stop
         class="stop1"
         offset="1"
         stop-opacity="1"
         stop-color="rgb(63,114,202)"
         id="stop2" />
    </linearGradient>
  </defs>
  <path
     fill="url(#Gradient1)"
     d="M 0.076,551.13413 0,292.40413 l 0.038,-78.504 c 0.051,-26.76 -0.041,-65.085 5.64,-90.622 C 11.911,94.280133 26.329,67.677133 47.224,46.626133 91.904,1.5311333 139.867,0.13813334 198.988,0.00613334 l 248.347,0.014 78,-0.017 c 26.21,0.007 59.5,-0.376 84.95,5.39799996 28.12,6.2769997 53.85,20.4879997 74.14,40.9489997 46.35,46.327 46.72,100.033997 46.89,161.082997 l 0.05,78.256 -0.01,253.884 c -0.12,57.324 -5.02,102.877 -47.79,146.165 -52.27,52.891 -118.45,45.436 -187.42,45.402 l -39.61,-0.093 c -21.4,0.489 -44.03,0.124 -65.51,0.122 l -50.053,0.023 -65.994,-0.125 -39.324,0.066 c -66.478,0.101 -133.868,7.143 -184.976,-42.889 -41.399,-40.527 -49.47,-82.021 -50.602,-137.11 z"
     id="path3"
     style="fill:url(#Gradient1)" />
  <path
     fill="#076873"
     d="m 290.328,172.13913 c 2.542,-27.982 9.163,-55.597 31.852,-74.538997 14.027,-11.805 32.235,-17.434 50.475,-15.607 18.58,1.951 35.61,11.248 47.31,25.821997 15.27,18.907 19.96,41.063 21.62,64.658 20.77,-19.032 44.88,-33.184 73.99,-32.012 18.46,0.779 35.82,9 48.11,22.788 31.17,34.445 15.43,85.187 -14.19,114.62 27.8,1.919 55.12,8.54 74.17,30.5 12.02,13.857 17.95,31.965 16.46,50.243 -1.43,18.409 -10.2,35.469 -24.35,47.341 -18.98,16.25 -41.12,21.02 -65.43,22.952 4.71,5.713 8.97,11.043 13.22,17.098 22.53,32.154 24.36,77.972 -8.52,104.495 -14.49,11.824 -33.18,17.221 -51.75,14.941 -23.64,-2.77 -44.53,-15.243 -61.69,-31.217 -3.9,43.271 -18.46,77.732 -63.6,89.844 0.19,22.473 -0.57,47.29 0.03,69.402 25.76,-46.053 56.72,-76.438 108.54,-91.347 13.82,-3.975 40.71,-8.874 54.61,-4.385 8.31,2.681 6.93,16.884 6.46,23.713 -1.71,26.225 -9.69,51.654 -23.28,74.149 -8.55,14.118 -16.84,23.834 -28.22,35.542 l -39.61,-0.093 c -21.4,0.489 -44.03,0.124 -65.51,0.122 l -50.053,0.023 -65.994,-0.125 -39.324,0.066 c -12.533,-12.869 -18.051,-23.073 -27.62,-33.752 -12.463,-23.33 -20.163,-41.967 -23.547,-68.36 -4.673,-36.453 6.565,-35.036 37.482,-31.355 10.275,1.224 19.54,3.218 29.6,6.42 42.96,13.841 78.621,44.251 99.076,84.485 0.93,1.82 1.86,3.646 2.77,5.476 -0.01,-22.451 -0.55,-47.976 0.11,-70.189 -43.139,-11.263 -61.09,-47.626 -63.103,-89.788 -20.974,18.412 -45.469,33.31 -74.531,31.645 -18.163,-1.197 -35.122,-9.507 -47.196,-23.128 -31.201,-35.287 -15.258,-81.965 12.737,-113.303 -29.75,-3.624 -56.45,-9.818 -75.998,-34.892 -10.975,-14.243 -15.794,-32.285 -13.383,-50.103 5.995,-44.132 49.657,-66.043 90.443,-66.544 -18.404,-19.185 -31.746,-44.21 -31.084,-71.359 0.288,-17.887 7.79,-34.899 20.803,-47.175 35.18,-33.442 87.392,-18.248 118.115,12.928 z"
     id="path4"
     style="display:inline" />
  <path
     fill="#90c550"
     d="m 391.025,731.16913 c 9.17,-37.257 32.68,-69.39 65.41,-89.417 19.14,-11.528 44.07,-19.826 66.5,-20.934 -2.88,39.201 -20.82,72.42 -50.35,97.993 -5.11,4.388 -10.47,8.474 -16.05,12.236 -21.4,0.489 -44.03,0.124 -65.51,0.122 z"
     id="path5" />
  <path
     fill="#90c550"
     d="m 208.256,620.78813 c 66.419,5.396 114.404,46.874 132.716,110.404 l -65.994,-0.125 c -39.177,-29.532 -59.273,-57.689 -66.296,-107.13 -0.148,-1.048 -0.29,-2.098 -0.426,-3.149 z"
     id="path6"
     style="display:inline" />
  <path
     fill="#eb8d13"
     d="m 340.121,253.07513 c 18.884,-4.855 38.754,-4.275 57.324,1.673 7.85,2.512 15.36,5.952 22.39,10.246 16.12,9.848 29.23,23.918 37.92,40.687 3.71,7.157 6.57,14.723 8.52,22.545 4.56,18.235 4.06,37.366 -1.44,55.339 -2.4,7.823 -5.71,15.334 -9.87,22.376 -9.69,16.395 -23.72,29.797 -40.54,38.732 -7.22,3.837 -14.87,6.804 -22.79,8.839 -18.75,4.818 -38.48,4.279 -56.942,-1.557 -7.91,-2.501 -15.49,-5.943 -22.577,-10.254 -16.215,-9.861 -29.405,-23.991 -38.128,-40.845 -3.787,-7.316 -6.687,-15.058 -8.637,-23.062 -4.394,-18.028 -3.859,-36.906 1.548,-54.657 2.428,-7.969 5.809,-15.616 10.071,-22.775 9.681,-16.263 23.638,-29.56 40.351,-38.442 7.224,-3.84 14.877,-6.809 22.8,-8.845 z"
     id="path7"
     style="display:inline" />
  <path
     fill="#fcb51f"
     d="m 353.945,275.71813 c 42.78,-6.529 82.78,22.785 89.44,65.547 6.66,42.762 -22.53,82.851 -65.28,89.642 -42.923,6.821 -83.225,-22.525 -89.913,-65.473 -6.689,-42.948 22.78,-83.16 65.753,-89.716 z"
     id="path8"
     style="display:inline" />
  <path
     fill="#f2f4f3"
     d="m 419.835,264.99413 c 4.13,-9.187 7.51,-17.309 10.68,-26.9 1.68,-5.084 4.31,-15.801 6.56,-20.165 15.34,-29.801 57.81,-65.322 93.09,-49.132 10.64,4.918 18.92,13.821 23.05,24.786 5.09,13.75 2.36,29.919 -4.17,42.771 -18.38,36.14 -54.63,55.986 -91.29,69.327 -8.69,-16.769 -21.8,-30.839 -37.92,-40.687 z"
     id="path9" />
  <path
     fill="#f2f4f3"
     d="m 276.97,300.36213 c -18.94,-9.328 -29.866,-11.86 -48.525,-18.149 -15.447,-5.207 -40.036,-31.846 -46.231,-47.448 -5.464,-13.763 -9.003,-27.188 -3.18,-41.972 4.428,-11.023 13.072,-19.823 24.014,-24.447 12.55,-5.264 28.874,-3.968 40.954,1.612 39.436,18.217 58.047,54.522 73.319,91.962 -16.713,8.882 -30.67,22.179 -40.351,38.442 z"
     id="path10" />
  <path
     fill="#f2f4f3"
     d="m 466.275,328.22613 c 9.91,-3.36 17.41,-6.387 26.77,-10.85 6.07,-2.892 17.8,-10.21 23.67,-11.848 32,-8.935 84.07,-2.579 96.3,33.635 3.8,11.076 2.94,23.219 -2.39,33.644 -6.88,13.512 -20.19,22.546 -34.46,26.828 -38.56,11.569 -76.04,-0.625 -111.33,-16.07 5.5,-17.973 6,-37.104 1.44,-55.339 z"
     id="path11" />
  <path
     fill="#f2f4f3"
     d="m 265.351,377.79413 c -5.203,1.865 -10.265,3.989 -15.422,5.878 -15.139,5.602 -27.959,16.75 -44.096,19.144 -29.931,4.442 -72.767,-1.524 -85.83,-33.344 -4.46,-10.906 -4.3,-23.155 0.444,-33.941 5.672,-13.021 17.242,-22.127 30.338,-26.962 39.411,-14.552 79.726,-1.607 116.114,14.568 -5.407,17.751 -5.942,36.629 -1.548,54.657 z"
     id="path12" />
  <path
     fill="#f2f4f3"
     d="m 273.988,400.85613 c 8.723,16.854 21.913,30.984 38.128,40.845 -10.116,21.449 -12.674,43.675 -27.258,61.964 -18.416,23.094 -53.097,47.665 -83.56,32.667 -10.666,-5.312 -18.772,-14.659 -22.522,-25.968 -6.74,-20.022 2.895,-42.898 15.597,-58.535 20.363,-25.068 49.449,-40.778 79.615,-50.973 z"
     id="path13" />
  <path
     fill="#f2f4f3"
     d="m 454.965,405.94113 c 17.71,8.302 33.92,12.362 50.38,18.657 17.69,6.761 40.8,35.366 46.63,53.181 4.56,13.245 5.28,26.547 -0.81,39.025 -5.08,10.216 -14.01,17.999 -24.83,21.641 -51.18,17.542 -99.25,-52.668 -111.91,-93.772 16.82,-8.935 30.85,-22.337 40.54,-38.732 z"
     id="path14" />
  <path
     fill="#f2f4f3"
     d="m 340.121,253.07513 c -6.177,-17.528 -15.025,-32.012 -21.342,-47.282 -7.393,-17.869 -3.659,-53.296 4.95,-70.382 5.991,-12.249 14.801,-21.72 27.436,-26.203 11.04,-3.904 23.19,-3.183 33.68,2.001 49.19,24.094 31.04,105.134 12.6,143.539 -18.57,-5.948 -38.44,-6.528 -57.324,-1.673 z"
     id="path15" />
  <path
     fill="#f2f4f3"
     d="m 334.693,451.95513 c 18.462,5.836 38.192,6.375 56.942,1.557 5.27,17.565 11.78,27.706 19.51,43.264 8.29,16.691 6.85,48.825 -0.07,66.477 -5.53,14.092 -14.01,26.589 -28.48,33.015 -10.05,4.57 -21.54,4.78 -31.75,0.581 -31.65,-12.825 -38.044,-54.005 -34.271,-83.897 2.798,-22.178 9.947,-40.55 18.119,-60.997 z"
     id="path16"
     style="display:inline" />
</svg>
